# xmcd CD database file
#
# Track frame offsets:
#	150
#	16754
#	31429
#	47279
#	68554
#	86804
#	102504
#	121454
#	138729
#	154028
#	167916
#	181279
#	198591
#	216241
#	231041
#	246341
#
# Disc length: 3503 seconds
#
# Revision: 1
# Processed by: cddbd v1.5.2PL0 Copyright (c) Steve Scherf et al.
# Submitted via: CDex 1.51
#
DISCID=de0dad10
DTITLE=Various Artist - Stand By Your Man - The Greatest Country Love Songs [CD 3)
DYEAR=2004
DGENRE=Country
TTITLE0=Alabama - Touch Me When We're Dancing
TTITLE1=Waylon Jenning - Luckenbach, Texas (Back To The Basics Of Love)
TTITLE2=Willie Nelson - Always On My Mind
TTITLE3=Charlie Daniels - Talking To The Moon
TTITLE4=Karla Bonoff - Someone To Lay Down Beside Me
TTITLE5=Restless Heart - A Tender Lie
TTITLE6=K.T. Oslin - 80's Ladies
TTITLE7=Valerie Carter - Cowboy Angel
TTITLE8=Doug Stone - More Love
TTITLE9=Ricky Van Shelton - I'll Leave This World Loving You
TTITLE10=Vern Gosdin - I Knew My Day Would Come
TTITLE11=Janie Frickie - Sleeping With Your Memory
TTITLE12=Tanya Tucker - The Best Of My Love
TTITLE13=Rick Treviño - She Can't Say I Didn't Cry
TTITLE14=Shenandoah - Mama Knows
TTITLE15=Shelby Lynne - What About The Love We Made
EXTD=YEAR: 2004
EXTT0=
EXTT1=
EXTT2=
EXTT3=
EXTT4=
EXTT5=
EXTT6=
EXTT7=
EXTT8=
EXTT9=
EXTT10=
EXTT11=
EXTT12=
EXTT13=
EXTT14=
EXTT15=
PLAYORDER=
